<svg width="102" height="42" viewBox="0 0 102 42" fill="none" xmlns="http://www.w3.org/2000/svg">
<path d="M68.943 20.043L55.657 24.1007L64.3112 36.397L56.3883 41.9303L47.856 29.6341L39.3236 41.9303L31.4008 36.397L40.055 23.9778L27.0127 20.043L29.8162 10.6978L42.6147 14.6326V0H53.2192V14.6326L66.1396 10.6978L68.943 20.043Z" fill="#0072FC"/>
<path d="M9.23758 41.8015H0V0.0517578H29.3641V8.41202H9.23758V15.8434H24.7712V24.2036H9.23758V41.8015Z" fill="black"/>
<path d="M69.9007 0.0517578H87.3437C96.4781 0.0517578 102 6.60579 102 13.5211C102 20.4364 96.4781 26.784 87.3953 26.784C78.5706 26.784 79.1383 26.784 79.1383 26.784V41.8015H69.9007V0.0517578ZM88.0662 18.6817C91.3174 18.6817 93.8978 16.7207 93.8978 13.5211C93.8978 10.2699 91.3174 8.15399 88.0662 8.15399H79.1383V18.6817H88.0662Z" fill="black"/>
</svg>
